<svg xmlns="http://www.w3.org/2000/svg" id="b" data-name="Layer 2" viewBox="0 0 418.82 437.11"><g id="c" data-name="Layer 1"><g><path d="m63.8,119.14H11.14V16.87h23.91v81.62h28.75v20.65Z" fill="#ffca05"></path><path d="m95.85,119.14V16.87h55.65v19.86h-31.88v18.79h29.42v20.52h-29.42v22.31h31.88v20.79h-55.65Z" fill="#ffca05"></path><path d="m200.28,119.14V36.73h-19.13v-19.86h63.22v19.86h-20.12v82.41h-23.97Z" fill="#ffca05"></path><path d="m275.5,16.87h20.79v19.46c0,6.91-1.73,12.25-5.18,16.04s-8.66,6.05-15.61,6.81v-7.64c3.76-.75,6.52-2.16,8.27-4.22,1.75-2.06,2.67-4.99,2.76-8.8h-11.02v-21.65Z" fill="#ffca05"></path><path d="m331.12,84.47h21.92v2.99c0,5.62.66,9.59,1.99,11.89,1.33,2.3,3.56,3.45,6.71,3.45,2.52,0,4.52-.87,5.98-2.62,1.46-1.75,2.19-4.13,2.19-7.14,0-4.96-3.56-9.72-10.69-14.28-1.15-.8-2.04-1.39-2.66-1.79l-1.13-.73c-9.61-6.46-15.58-11.33-17.93-14.61-1.68-2.48-2.97-5.27-3.85-8.37-.89-3.1-1.33-6.48-1.33-10.16,0-8.94,2.59-15.96,7.77-21.05,5.18-5.09,12.31-7.64,21.38-7.64,9.87,0,17.41,2.5,22.61,7.5,5.2,5,7.8,12.24,7.8,21.72,0,.4-.02.95-.07,1.66-.04.71-.07,1.26-.07,1.66h-21.45v-1.26c0-4.47-.7-7.86-2.09-10.16-1.4-2.3-3.42-3.45-6.08-3.45-2.26,0-4.07.81-5.45,2.42-1.37,1.62-2.06,3.75-2.06,6.41,0,4.34,3.9,8.94,11.69,13.81,1.42.93,2.5,1.64,3.25,2.13.62.35,1.48.91,2.59,1.66,8.37,5.31,13.72,9.78,16.07,13.41,1.46,2.35,2.58,5.01,3.35,8s1.16,6.23,1.16,9.73c0,10.23-2.66,18.11-7.97,23.64-5.31,5.53-12.91,8.3-22.78,8.3-10.36,0-18.14-2.65-23.34-7.94-5.2-5.29-7.8-13.16-7.8-23.61,0-.66.01-1.36.03-2.09.02-.73.1-1.89.23-3.49Z" fill="#ffca05"></path><path d="m15.24,247.09v-71.44h23.38l6.35,30.38c.03.16.29,2.06.77,5.73.48,3.66.98,7.34,1.51,11.02.4-2.75.9-6.16,1.51-10.23.6-4.07.95-6.32,1.04-6.75l6.31-30.15h23.15v71.44h-15.77l1.44-55.2-11.32,55.2h-12.71l-11.32-55.2,1.44,55.2h-15.77Z" fill="#ffca05"></path><path d="m100.89,247.09l15.59-71.44h19.85l15.4,71.44h-16.7l-2.09-13.68h-13.13l-2.09,13.68h-16.84Zm20.64-26.58h9.6l-4.78-31.17-4.82,31.17Z" fill="#ffca05"></path><path d="m173.28,247.09v-71.44h16.7v29.64l12.48-29.64h17.07l-15.49,31.26,15.86,40.17h-17.53l-8.77-25.84-3.62,6.82v19.02h-16.7Z" fill="#ffca05"></path><path d="m239.6,247.09v-71.44h38.87v13.87h-22.27v13.13h20.55v14.33h-20.55v15.59h22.27v14.52h-38.87Z" fill="#ffca05"></path><path d="m339.15,247.09l15.59-71.44h19.85l15.4,71.44h-16.7l-2.09-13.68h-13.13l-2.09,13.68h-16.84Zm20.64-26.58h9.6l-4.78-31.17-4.82,31.17Z" fill="#ffca05"></path><path d="m15.28,405.04v-102.27h33.47l9.1,43.5c.04.22.41,2.96,1.1,8.2.69,5.25,1.4,10.5,2.16,15.77.57-3.94,1.29-8.82,2.16-14.64.86-5.82,1.36-9.04,1.49-9.66l9.03-43.17h33.14v102.27h-22.58l2.06-79.03-16.2,79.03h-18.2l-16.2-79.03,2.06,79.03H15.28Z" fill="#ffca05"></path><path d="m145.28,405.04v-102.27h55.65v19.86h-31.88v18.79h29.42v20.52h-29.42v22.31h31.88v20.79h-55.65Z" fill="#ffca05"></path><path d="m234.11,370.37h21.92v2.99c0,5.62.66,9.59,1.99,11.89,1.33,2.3,3.56,3.45,6.71,3.45,2.52,0,4.52-.87,5.98-2.62,1.46-1.75,2.19-4.13,2.19-7.14,0-4.96-3.56-9.72-10.69-14.28-1.15-.8-2.04-1.39-2.66-1.79l-1.13-.73c-9.61-6.46-15.58-11.33-17.93-14.61-1.68-2.48-2.97-5.27-3.85-8.37s-1.33-6.49-1.33-10.16c0-8.94,2.59-15.96,7.77-21.05,5.18-5.09,12.31-7.64,21.38-7.64,9.87,0,17.41,2.5,22.61,7.5s7.8,12.24,7.8,21.71c0,.4-.02.95-.07,1.66-.04.71-.07,1.26-.07,1.66h-21.45v-1.26c0-4.47-.7-7.86-2.09-10.16-1.4-2.3-3.42-3.45-6.08-3.45-2.26,0-4.07.81-5.45,2.42-1.37,1.62-2.06,3.75-2.06,6.41,0,4.34,3.9,8.94,11.69,13.81,1.42.93,2.5,1.64,3.25,2.12.62.35,1.48.91,2.59,1.66,8.37,5.31,13.72,9.79,16.07,13.41,1.46,2.35,2.58,5.01,3.35,8,.77,2.99,1.16,6.23,1.16,9.73,0,10.23-2.66,18.11-7.97,23.64s-12.91,8.3-22.78,8.3c-10.36,0-18.14-2.64-23.34-7.94-5.2-5.29-7.8-13.16-7.8-23.61,0-.66.01-1.36.03-2.09.02-.73.1-1.89.23-3.49Z" fill="#ffca05"></path><path d="m326.98,370.37h21.92v2.99c0,5.62.66,9.59,1.99,11.89,1.33,2.3,3.56,3.45,6.71,3.45,2.52,0,4.52-.87,5.98-2.62,1.46-1.75,2.19-4.13,2.19-7.14,0-4.96-3.56-9.72-10.69-14.28-1.15-.8-2.04-1.39-2.66-1.79l-1.13-.73c-9.61-6.46-15.58-11.33-17.93-14.61-1.68-2.48-2.97-5.27-3.85-8.37s-1.33-6.49-1.33-10.16c0-8.94,2.59-15.96,7.77-21.05,5.18-5.09,12.31-7.64,21.38-7.64,9.87,0,17.41,2.5,22.61,7.5s7.8,12.24,7.8,21.71c0,.4-.02.95-.07,1.66-.04.71-.07,1.26-.07,1.66h-21.45v-1.26c0-4.47-.7-7.86-2.09-10.16-1.4-2.3-3.42-3.45-6.08-3.45-2.26,0-4.07.81-5.45,2.42-1.37,1.62-2.06,3.75-2.06,6.41,0,4.34,3.9,8.94,11.69,13.81,1.42.93,2.5,1.64,3.25,2.12.62.35,1.48.91,2.59,1.66,8.37,5.31,13.72,9.79,16.07,13.41,1.46,2.35,2.58,5.01,3.35,8,.77,2.99,1.16,6.23,1.16,9.73,0,10.23-2.66,18.11-7.97,23.64s-12.91,8.3-22.78,8.3c-10.36,0-18.14-2.64-23.34-7.94-5.2-5.29-7.8-13.16-7.8-23.61,0-.66.01-1.36.03-2.09.02-.73.1-1.89.23-3.49Z" fill="#ffca05"></path></g></g></svg>